inDegrees=yes
name=ik_Xsens
DataType=double
version=3
OpenSimVersion=4.4-2022-07-23-0e9fedc
endheader
time	pelvis_tilt	pelvis_list	pelvis_rotation	pelvis_tx	pelvis_ty	pelvis_tz	hip_flexion_r	hip_adduction_r	hip_rotation_r	knee_angle_r	knee_angle_r_beta	ankle_angle_r	subtalar_angle_r	mtp_angle_r	hip_flexion_l	hip_adduction_l	hip_rotation_l	knee_angle_l	knee_angle_l_beta	ankle_angle_l	subtalar_angle_l	mtp_angle_l	lumbar_extension	lumbar_bending	lumbar_rotation	arm_flex_r	arm_add_r	arm_rot_r	elbow_flex_r	pro_sup_r	wrist_flex_r	wrist_dev_r	arm_flex_l	arm_add_l	arm_rot_l	elbow_flex_l	pro_sup_l	wrist_flex_l	wrist_dev_l
47.06666666666666	0	0	0	0	0.93	0	0	0	0	0	1.175494350822288e-38	0	0	0	0	0	0	0	1.175494350822288e-38	0	0	0	0	0	0	77.435267159719	2.900456892692377	17.38155315740907	-57.96666264843437	-33.79047145122787	0	0	-277.8421036765126	-9.365049134153868	-321.9747277559555	-16.17359586161877	-25.7340690222807	0	0
47.08333333333334	0	0	0	0	0.93	0	0	0	0	0	0	0	0	0	0	0	0	0	0	0	0	0	0	0	0	77.34885978103263	3.015557492503134	17.33239469342248	-57.98051740910915	-33.85854299492605	0	0	-277.8435824471441	-9.28466236258236	-322.0771495810672	-16.19381212399458	-25.6963284640723	0	0
47.1	0	0	0	0	0.93	0	0	0	0	0	0	0	0	0	0	0	0	0	0	0	0	0	0	0	0	77.26163448526864	3.152048144567089	17.29851547539718	-58.00754101705414	-34.0274885136263	0	0	-277.8390312527041	-9.210904398161592	-322.1509646495737	-16.22880224905251	-25.63423970917974	0	0
47.11666666666667	0	0	0	0	0.93	0	0	0	0	0	-5.877471754111438e-39	0	0	0	0	0	0	0	-5.877471754111438e-39	0	0	0	0	0	0	77.20156539008514	3.238700841320133	17.23019545940247	-58.01590669986876	-34.1169487011726	0	0	-277.8652830129623	-9.143730927017749	-322.1868809585403	-16.24026555012672	-25.59571614179375	0	0
47.13333333333333	0	0	0	0	0.93	0	0	0	0	0	-5.877471754111438e-39	0	0	0	0	0	0	0	-5.877471754111438e-39	0	0	0	0	0	0	77.13585300478766	3.317839207442761	17.15854464389574	-58.02320232838859	-34.19967184130081	0	0	-277.8904896547359	-9.06747154038789	-322.2091530267331	-16.25903901487092	-25.56375023764437	0	0
47.15	0	0	0	0	0.93	0	0	0	0	0	-5.877471754111438e-39	0	0	0	0	0	0	0	-5.877471754111438e-39	0	0	0	0	0	0	77.0699697514415	3.407154046647982	17.10459357355947	-58.03536639501777	-34.3129435046222	0	0	-277.8950561492332	-8.982252764366033	-322.2267722966963	-16.29551675492523	-25.53696528603888	0	0
47.16666666666666	0	0	0	0	0.93	0	0	0	0	0	-5.877471754111438e-39	0	0	0	0	0	0	0	-5.877471754111438e-39	0	0	0	0	0	0	77.00541044792756	3.483966911636315	17.03926643419026	-58.03400617412736	-34.40879430685928	0	0	-277.8978125634262	-8.903458016782571	-322.236838108613	-16.31482789302534	-25.49878421483277	0	0
47.18333333333333	0	0	0	0	0.93	0	0	0	0	0	-5.877471754111438e-39	0	0	0	0	0	0	0	-5.877471754111438e-39	0	0	0	0	0	0	76.94153783894591	3.581977052899079	16.97270315969347	-58.03396239733148	-34.5751492332366	0	0	-277.8932858173937	-8.821485501149345	-322.2374664977541	-16.33705122727527	-25.48908357778063	0	0
47.2	0	0	0	0	0.93	0	0	0	0	0	0	0	0	0	0	0	0	0	0	0	0	0	0	0	0	76.88778023099752	3.681061516286967	16.89003623382751	-58.0324332404089	-34.7893286412427	0	0	-277.8913792249276	-8.741808078118574	-322.2703282872657	-16.34406222156504	-25.52995238133843	0	0
47.21666666666667	0	0	0	0	0.93	0	0	0	0	0	0	0	0	0	0	0	0	0	0	0	0	0	0	0	0	76.85295573806395	3.757528686384108	16.79911117720638	-58.02157723598271	-34.93922862753908	0	0	-277.895531229108	-8.676688982365823	-322.3178444992927	-16.33584723964289	-25.53248772777624	0	0
47.23333333333333	-6.473199759491345e-13	-2.331220923428879e-12	2.451791872763489e-12	4.503555156471516e-33	0.93	-5.038587777891995e-32	5.852938742494111e-28	-1.242017017871723e-28	0	5.063936781388668e-05	8.838236995867592e-07	-8.367081853910169e-16	-7.964808123766168e-21	6.019770418195773e-27	2.832072224381242e-29	-6.107414295842536e-29	-2.078513474869785e-29	5.063936781388668e-05	8.838236995867592e-07	6.453534581451266e-21	8.928264010231138e-30	-1.506280966255381e-27	-6.473199759491345e-13	-2.331220923428885e-12	2.451791872763489e-12	76.8008477214421	3.852018870246715	16.70574027844527	-58.00719605528194	-35.09432663494893	3.467431635193051e-29	-3.851482695012561e-27	-277.8940229351174	-8.601112505839684	-322.3730553528234	-16.32990907854076	-25.51510063253497	-1.110884040204326e-27	8.970819231917932e-28
47.25	0	0	0	0	0.93	0	0	0	0	0	-4.70197740328915e-38	0	0	0	0	0	0	0	-4.70197740328915e-38	0	0	0	0	0	0	76.74979197207934	3.949557705583477	16.61639190800458	-57.97703860511436	-35.23661439992456	0	0	-277.891326582482	-8.519243415143052	-322.4198306646898	-16.33734597442099	-25.48190137468697	0	0
47.26666666666667	0	0	0	0	0.93	0	0	0	0	0	0	0	0	0	0	0	0	0	0	0	0	0	0	0	0	76.69381465666856	4.063625067571849	16.54048308524994	-57.94134822645368	-35.40565196373528	0	0	-277.8883300760034	-8.430646190381948	-322.4706203809303	-16.36484693454775	-25.42536519789963	0	0
47.28333333333333	0	0	0	0	0.93	0	0	0	0	0	0	0	0	0	0	0	0	0	0	0	0	0	0	0	0	76.63044876201329	4.167710285429634	16.49022847332513	-57.90037100731925	-35.49751379334751	0	0	-277.9008178477415	-8.345403399489058	-322.5049817514322	-16.3837133256156	-25.38536549898483	0	0
47.3	0	0	0	0	0.93	0	0	0	0	0	0	0	0	0	0	0	0	0	0	0	0	0	0	0	0	76.56827575163129	4.253570380866393	16.44234482295038	-57.85421895784668	-35.52959655695423	0	0	-277.9227590983284	-8.26547737409123	-322.521238868723	-16.39313200093047	-25.41890591239648	0	0
47.31666666666666	0	0	0	0	0.93	0	0	0	0	0	-5.877471754111438e-39	0	0	0	0	0	0	0	-5.877471754111438e-39	0	0	0	0	0	0	76.48798009467966	4.347227264898719	16.40758855479096	-57.77624327408235	-35.6070227649118	0	0	-277.9451008220499	-8.172782843427976	-322.5276891345289	-16.40923418658501	-25.49520933149285	0	0
47.33333333333334	0	0	0	0	0.93	0	0	0	0	0	-5.877471754111438e-39	0	0	0	0	0	0	0	-5.877471754111438e-39	0	0	0	0	0	0	76.41654486966739	4.436966588439165	16.36984826298141	-57.70059924524061	-35.71736595784339	0	0	-277.9663055554848	-8.103195893566904	-322.5683066221334	-16.43228452348864	-25.51106226734287	0	0
47.35	0	0	0	0	0.93	0	0	0	0	0	-5.877471754111438e-39	0	0	0	0	0	0	0	-5.877471754111438e-39	0	0	0	0	0	0	76.36347342201607	4.530015755489301	16.32355119243962	-57.66682824601951	-35.83796886873488	0	0	-277.9983474340763	-8.042378729270856	-322.6496227887772	-16.46602197013697	-25.46028650588123	0	0
47.36666666666667	0	0	0	0	0.93	0	0	0	0	0	-5.877471754111438e-39	0	0	0	0	0	0	0	-5.877471754111438e-39	0	0	0	0	0	0	76.31337081567186	4.601347343785927	16.27965527379119	-57.64712479294142	-35.84298110737894	0	0	-278.0344232191719	-7.99209584976781	-322.7107600245829	-16.48940998586354	-25.4708772231227	0	0
47.38333333333333	0	0	0	0	0.93	0	0	0	0	0	0	0	0	0	0	0	0	0	0	0	0	0	0	0	0	76.22669329662762	4.668452491915308	16.23511772367809	-57.59749889248994	-35.84770831690397	0	0	-278.0712871480075	-7.928884830853281	-322.8091637842889	-16.52494780469763	-25.68388294559639	0	0
47.4	0	0	0	0	0.93	0	0	0	0	0	-4.114230227878006e-38	0	0	0	0	0	0	0	-4.114230227878006e-38	0	0	0	0	0	0	76.13760813268108	4.69642045074458	16.20953486721683	-57.5339535917696	-35.8367162701849	0	0	-278.1125725294579	-7.911180698430015	-322.871945420027	-16.56176176208594	-25.92061942721717	0	0
